# xmcd
#
# Track frame offsets: 
#        150
#        13890
#        28770
#        41330
#        57336
#        71216
#        93209
#        106912
#        122065
#        135367
#        150406
#        162043
#        176535
#        188268
#        204298
#        220205
#        230710
#        243471
#
# Disc length: 3412 seconds
#
# Revision: 4
# Processed by: cddbd v1.5.1PL0 Copyright (c) Steve Scherf et al.
# Submitted via: ExactAudioCopy v0.95a5
#
DISCID=e80d5212
DTITLE=Various Artist - Jazz and Blues Collection Complete CD 4
DYEAR=1900
DGENRE=
TTITLE0=Count Basie - One O'Clock Jump
TTITLE1=Francis Joseph "Mugsie" Spanier - Relaxin' At The Touro
TTITLE2=George Shearing - Pionciana
TTITLE3=Stephane Grapelli - Makin' Whoopie
TTITLE4=Lena Horne - More Than You Know
TTITLE5=Charlie Parker - Ooh Bob She Ban
TTITLE6=Billie Holiday - They Can't Take That Away From Me
TTITLE7=Glenn Miller - Moonlight Serenade
TTITLE8=Tommy Dorsey - Opus No. 1
TTITLE9=Ella Fitzgerald and Louis Armstrong - I'm Just A Jitterbug
TTITLE10=Benny Goodman - Let's Dance
TTITLE11=Ella Fitzgerald and Louis Armstrong - Stars Fell On Alabama
TTITLE12=Earl Hines - Nice Work If You Can Get It
TTITLE13=Edward Ory - High Society
TTITLE14=Glenn Miller - Amapola
TTITLE15=Louis Armstrong - Pretty Little Missy
TTITLE16=Eddie Condon - Sweet Georgia Brown
TTITLE17=Lena Horne - Sometimes I Feel Like A Motherless Child
EXTD=
EXTT0=
EXTT1=
EXTT2=
EXTT3=
EXTT4=
EXTT5=
EXTT6=
EXTT7=
EXTT8=
EXTT9=
EXTT10=
EXTT11=
EXTT12=
EXTT13=
EXTT14=
EXTT15=
EXTT16=
EXTT17=
PLAYORDER=
